<svg xmlns="http://www.w3.org/2000/svg" version="1.1" xmlns:xlink="http://www.w3.org/1999/xlink" xmlns:svgjs="http://svgjs.dev/svgjs" width="1000" height="3207" viewBox="0 0 1000 3207"><g transform="matrix(1,0,0,1,1.0539970812390607,1.2983805668015975)"><svg viewBox="0 0 77 247" data-background-color="#ffffff" preserveAspectRatio="xMidYMid meet" height="3207" width="1000" xmlns="http://www.w3.org/2000/svg" xmlns:xlink="http://www.w3.org/1999/xlink"><g id="tight-bounds" transform="matrix(1,0,0,1,-0.0811577752554058,-0.09999999999999432)"><svg viewBox="0 0 77.16231555051077 247.2" height="247.2" width="77.16231555051077"><g><svg viewBox="0 0 77.16231555051077 247.2" height="247.2" width="77.16231555051077"><g><svg viewBox="0 0 77.16231555051077 247.2" height="247.2" width="77.16231555051077"><g id="textblocktransform"><svg viewBox="0 0 77.16231555051077 247.2" height="247.2" width="77.16231555051077" id="textblock"><g><svg viewBox="0 0 77.16231555051077 247.2" height="247.2" width="77.16231555051077"><g transform="matrix(1,0,0,1,0,0)"><svg width="77.16231555051077" viewBox="-1.25 -34.8 13.75 44.05" height="247.2" data-palette-color="#ffa458"><path d="M12.5-34.8L12.5-5.5Q12.5-1.1 10.9 1.83 9.3 4.75 6.93 6.38 4.55 8 1.4 9.25L1.4 9.25-1.25 2.3Q0.5 1.45 1.33 0.43 2.15-0.6 2.38-1.98 2.6-3.35 2.6-5.85L2.6-5.85 2.6-34.8 12.5-34.8Z" opacity="1" transform="matrix(1,0,0,1,0,0)" fill="#ffa458" class="undefined-text-0" data-fill-palette-color="primary" id="text-0"></path></svg></g></svg></g></svg></g></svg></g></svg></g><defs></defs></svg><rect width="77.16231555051077" height="247.2" fill="none" stroke="none" visibility="hidden"></rect></g></svg></g></svg>